<svg version="1.1" id="Layer_1" xmlns="http://www.w3.org/2000/svg" xmlns:xlink="http://www.w3.org/1999/xlink" x="0px" y="0px"
	 width="100%" viewBox="0 0 1200 1200" enable-background="new 0 0 1200 1200" xml:space="preserve">
<path fill="#FFFFFF" opacity="1.000000" stroke="none" 
	d="
M634.000000,1201.000000 
	C422.666656,1201.000000 211.833328,1201.000000 1.000000,1201.000000 
	C1.000000,801.000000 1.000000,401.000000 1.000000,1.000000 
	C401.000000,1.000000 801.000000,1.000000 1201.000000,1.000000 
	C1201.000000,401.000000 1201.000000,801.000000 1201.000000,1201.000000 
	C1012.166687,1201.000000 823.333313,1201.000000 634.000000,1201.000000 
M578.500000,151.000000 
	C461.073151,151.000000 343.646332,151.000000 226.286591,151.000000 
	C226.286591,376.308777 226.286591,601.044312 226.286591,825.713379 
	C451.308868,825.713379 676.044434,825.713379 900.713379,825.713379 
	C900.713379,600.691223 900.713379,375.955719 900.713379,151.268799 
	C900.117188,151.145233 899.805481,151.024048 899.493774,151.024002 
	C792.829163,151.010529 686.164612,151.005356 578.500000,151.000000 
z"/>
<path fill="#000000" opacity="1.000000" stroke="none" 
	d="
M579.000000,151.000000 
	C686.164612,151.005356 792.829163,151.010529 899.493774,151.024002 
	C899.805481,151.024048 900.117188,151.145233 900.713379,151.268799 
	C900.713379,375.955719 900.713379,600.691223 900.713379,825.713379 
	C676.044434,825.713379 451.308868,825.713379 226.286591,825.713379 
	C226.286591,601.044312 226.286591,376.308777 226.286591,151.000000 
	C343.646332,151.000000 461.073151,151.000000 579.000000,151.000000 
M601.000000,676.000000 
	C601.000000,676.000000 601.027588,676.041870 601.960815,676.009155 
	C626.517029,676.009155 651.073303,676.009155 676.041870,676.009155 
	C676.041870,650.554382 676.041870,625.791016 676.000000,601.000000 
	C676.000000,601.000000 676.027588,601.041870 676.960815,601.009155 
	C701.517029,601.009155 726.073303,601.009155 751.041870,601.009155 
	C751.041870,575.554382 751.041870,550.791016 751.000000,526.000000 
	C751.000000,526.000000 751.027588,526.041870 751.960815,526.009155 
	C776.527954,526.009155 801.095093,526.009155 825.845398,526.009155 
	C825.845398,500.504333 825.845398,475.723969 825.975281,450.021515 
	C825.975281,400.440063 825.975281,350.858643 825.975281,300.757385 
	C800.615295,300.757385 775.893555,300.757385 750.835083,300.757385 
	C750.835083,275.634460 750.835083,251.032608 750.835083,226.299072 
	C700.774963,226.299072 651.061218,226.299072 600.825439,226.299072 
	C600.825439,251.315796 600.825439,276.037781 600.825439,300.601898 
	C575.582092,300.601898 550.863098,300.601898 525.804077,300.601898 
	C525.804077,275.603241 525.804077,251.001389 525.804077,226.314545 
	C475.743835,226.314545 426.030029,226.314545 375.962616,226.314545 
	C375.962616,251.429169 375.962616,276.230530 375.975464,300.975464 
	C375.975464,300.975464 376.031860,300.962616 375.091003,300.994019 
	C350.502930,300.994019 325.914825,300.994019 301.000000,300.994019 
	C301.000000,311.745270 300.989777,321.879120 301.001831,332.012970 
	C301.048950,371.656586 301.103088,411.300171 301.035309,451.881805 
	C301.035309,476.454773 301.035309,501.027740 301.035309,526.041931 
	C326.426605,526.041931 351.199524,526.041931 376.000000,526.000000 
	C376.000000,526.000000 375.958099,526.027588 375.990845,526.960815 
	C375.990845,551.517029 375.990845,576.073303 375.990845,601.041931 
	C401.445526,601.041931 426.208954,601.041931 451.000000,601.000000 
	C451.000000,601.000000 450.958099,601.027588 450.990845,601.960815 
	C450.990845,626.517029 450.990845,651.073303 450.990845,676.041870 
	C476.445526,676.041870 501.208954,676.041870 526.000000,676.000000 
	C526.000000,676.000000 525.958130,676.027588 525.990845,676.960815 
	C525.990845,701.546082 525.990845,726.131409 525.990845,750.701050 
	C551.360413,750.701050 575.950073,750.701050 601.041870,750.701050 
	C601.041870,725.612427 601.041870,700.820007 601.000000,676.000000 
z"/>
<path fill="#F44336" opacity="1.000000" stroke="none" 
	d="
M375.962616,301.031860 
	C375.962616,276.230530 375.962616,251.429169 375.962616,226.314545 
	C426.030029,226.314545 475.743835,226.314545 525.804077,226.314545 
	C525.804077,251.001389 525.804077,275.603241 525.804077,300.601898 
	C550.863098,300.601898 575.582092,300.601898 600.825439,300.601898 
	C600.825439,276.037781 600.825439,251.315796 600.825439,226.299072 
	C651.061218,226.299072 700.774963,226.299072 750.835083,226.299072 
	C750.835083,251.032608 750.835083,275.634460 750.835083,300.757385 
	C775.893555,300.757385 800.615295,300.757385 825.975281,300.757385 
	C825.975281,350.858643 825.975281,400.440063 825.452698,450.501465 
	C800.419922,450.981445 775.909729,450.981445 751.027588,450.981445 
	C751.027588,476.574280 751.027588,501.308075 751.027588,526.041870 
	C751.027588,526.041870 751.000000,526.000000 750.549194,526.004883 
	C725.552368,526.009705 701.006348,526.009705 676.027588,526.009705 
	C676.027588,551.533997 676.027588,576.287964 676.027588,601.041870 
	C676.027588,601.041870 676.000000,601.000000 675.549194,601.004883 
	C650.552368,601.009705 626.006348,601.009705 601.027588,601.009705 
	C601.027588,626.533997 601.027588,651.287964 601.027588,676.041870 
	C601.027588,676.041870 601.000000,676.000000 600.549194,676.004883 
	C575.384949,676.015686 550.671570,676.021667 525.958130,676.027588 
	C525.958130,676.027588 526.000000,676.000000 525.995117,675.549194 
	C525.990295,650.552368 525.990295,626.006287 525.990295,601.027588 
	C500.465942,601.027588 475.712006,601.027588 450.958099,601.027588 
	C450.958099,601.027588 451.000000,601.000000 450.995178,600.549194 
	C450.990356,575.552429 450.990356,551.006348 450.990356,526.027588 
	C425.465942,526.027588 400.712036,526.027588 375.958099,526.027588 
	C375.958099,526.027588 376.000000,526.000000 375.995178,525.549194 
	C375.990356,500.575867 375.990356,476.053284 375.990356,450.943787 
	C350.578033,450.943787 325.866333,450.943787 301.154633,450.943787 
	C301.103088,411.300171 301.048950,371.656586 301.001831,332.012970 
	C300.989777,321.879120 301.000000,311.745270 301.000000,300.994019 
	C325.914825,300.994019 350.502930,300.994019 375.547913,301.449890 
	C376.004822,326.487762 376.004822,351.069733 376.004822,375.690399 
	C401.281067,375.690399 425.989044,375.690399 450.666748,375.690399 
	C450.666748,350.673157 450.666748,325.965485 450.666748,301.031860 
	C425.543701,301.031860 400.753174,301.031860 375.962616,301.031860 
z"/>
<path fill="#B71C1C" opacity="1.000000" stroke="none" 
	d="
M301.094971,451.412781 
	C325.866333,450.943787 350.578033,450.943787 375.990356,450.943787 
	C375.990356,476.053284 375.990356,500.575867 375.981384,525.570190 
	C351.199524,526.041931 326.426605,526.041931 301.035309,526.041931 
	C301.035309,501.027740 301.035309,476.454773 301.094971,451.412781 
z"/>
<path fill="#B71C1C" opacity="1.000000" stroke="none" 
	d="
M751.494202,526.025513 
	C751.027588,501.308075 751.027588,476.574280 751.027588,450.981445 
	C775.909729,450.981445 800.419922,450.981445 825.387756,450.962524 
	C825.845398,475.723969 825.845398,500.504333 825.845398,526.009155 
	C801.095093,526.009155 776.527954,526.009155 751.494202,526.025513 
z"/>
<path fill="#B71C1C" opacity="1.000000" stroke="none" 
	d="
M375.974487,526.494202 
	C400.712036,526.027588 425.465942,526.027588 450.990356,526.027588 
	C450.990356,551.006348 450.990356,575.552429 450.981384,600.570190 
	C426.208954,601.041931 401.445526,601.041931 375.990845,601.041931 
	C375.990845,576.073303 375.990845,551.517029 375.974487,526.494202 
z"/>
<path fill="#B71C1C" opacity="1.000000" stroke="none" 
	d="
M676.494202,601.025513 
	C676.027588,576.287964 676.027588,551.533997 676.027588,526.009705 
	C701.006348,526.009705 725.552368,526.009705 750.570129,526.018677 
	C751.041870,550.791016 751.041870,575.554382 751.041870,601.009155 
	C726.073303,601.009155 701.517029,601.009155 676.494202,601.025513 
z"/>
<path fill="#B71C1C" opacity="1.000000" stroke="none" 
	d="
M450.974487,601.494202 
	C475.712006,601.027588 500.465942,601.027588 525.990295,601.027588 
	C525.990295,626.006287 525.990295,650.552368 525.981323,675.570129 
	C501.208954,676.041870 476.445526,676.041870 450.990845,676.041870 
	C450.990845,651.073303 450.990845,626.517029 450.974487,601.494202 
z"/>
<path fill="#B71C1C" opacity="1.000000" stroke="none" 
	d="
M601.494202,676.025513 
	C601.027588,651.287964 601.027588,626.533997 601.027588,601.009705 
	C626.006348,601.009705 650.552368,601.009705 675.570129,601.018677 
	C676.041870,625.791016 676.041870,650.554382 676.041870,676.009155 
	C651.073303,676.009155 626.517029,676.009155 601.494202,676.025513 
z"/>
<path fill="#B71C1C" opacity="1.000000" stroke="none" 
	d="
M525.974487,676.494202 
	C550.671570,676.021667 575.384949,676.015686 600.570129,676.018677 
	C601.041870,700.820007 601.041870,725.612427 601.041870,750.701050 
	C575.950073,750.701050 551.360413,750.701050 525.990845,750.701050 
	C525.990845,726.131409 525.990845,701.546082 525.974487,676.494202 
z"/>
<path fill="#FFFFFF" opacity="1.000000" stroke="none" 
	d="
M375.969055,301.003662 
	C400.753174,301.031860 425.543701,301.031860 450.666748,301.031860 
	C450.666748,325.965485 450.666748,350.673157 450.666748,375.690399 
	C425.989044,375.690399 401.281067,375.690399 376.004822,375.690399 
	C376.004822,351.069733 376.004822,326.487762 376.018341,301.434204 
	C376.031860,300.962616 375.975464,300.975464 375.969055,301.003662 
z"/>
</svg>